# xmcd
# Track frame offsets:
# 150
# 13493
# 24391
# 35358
# 44302
# 56345
# 67100
# 77938
#
# Disc length: 1312 seconds
# Revision: 0
# Processed by: cddbd v1.5.1PL2 Copyright (c) Steve Scherf et al.
# Submitted via: VisiTrax 2.9.10.228 - For more info visit www.synapsa.com
#
DISCID=66051e08
DTITLE=Riccardo - The Territory Cowboy
DYEAR=1900
DGENRE=Country
TTITLE0=Wild Horses.
TTITLE1=Me and Mr. Blue.
TTITLE2=Railroad Bum., The
TTITLE3=Rawhide.
TTITLE4=Territory Cowboy., The
TTITLE5=Plains Rider., The
TTITLE6=Liberty Valance.
TTITLE7=Ghost Riders In The Sky.
EXTD=
EXTT0=
EXTT1=
EXTT2=
EXTT3=
EXTT4=
EXTT5=
EXTT6=
EXTT7=
PLAYORDER=
